<svg width="76" height="67" viewBox="0 0 76 67" fill="none"
    xmlns="http://www.w3.org/2000/svg">
    <path d="M75.962 37.8682L0 36.7153L0.0379809 42.58C0.0759619 43.9049 0.831113 45.2342 2.45089 46.2262L17.8824 55.6723L33.316 65.1162C36.7254 67.2051 42.5767 67.0108 45.6599 65.1162C48.7497 63.2283 47.2059 62.2855 50.2913 60.3931C53.3767 58.5075 54.9183 59.4503 58.0082 57.5647C61.098 55.6701 73.4441 48.1208 73.4441 48.1208C75.1443 47.0797 75.9933 45.7146 75.9978 44.3473L75.962 37.8682Z" fill="#F4900C"/>
    <path d="M73.4441 33.8578C73.4441 33.8578 5.53853 30.0821 2.45089 31.97C-0.63674 33.8578 -0.958461 37.437 2.45089 39.5259L17.8824 48.972L33.316 58.4181C36.7254 60.5071 42.5767 60.3127 45.6599 58.4181C48.7497 56.5303 47.2059 55.5874 50.2913 53.6951C53.3767 51.8094 54.9183 52.7523 58.0082 50.8666C61.098 48.972 73.4419 41.4205 73.4419 41.4205C76.8512 39.3316 76.8535 35.9446 73.4441 33.8578Z" fill="#FFAC33"/>
    <path d="M20.6035 47.0864L36.4014 56.5325C36.4014 56.5325 39.5605 58.4181 42.7197 56.5325C45.394 54.9306 47.4584 51.8094 47.4584 51.8094L20.6035 47.0864Z" fill="#FFD983"/>
    <path d="M73.1447 33.5093C68.8082 27.725 13.5056 23.6521 4.83031 31.7957C3.07872 33.4423 -0.230097 36.7556 3.2932 41.7132C4.83031 44.3093 8.02072 46.0006 8.44521 45.1985C9.43495 43.3174 11.41 41.673 14.3725 41.8316C14.2049 42.2293 15.8046 48.9966 15.6236 49.1486C13.557 50.9046 17.8511 57.0084 22.8825 53.7577C24.1358 56.2331 31.7209 62.3436 36.9555 53.9855C37.9967 55.8712 48.9307 58.7399 51.967 50.04C51.9424 50.1897 51.9491 50.317 51.9089 50.4779C51.71 51.2599 53.522 51.9368 55.3674 51.2889C58.4707 50.2031 62.9524 47.5064 63.7456 44.5461C65.9596 44.1596 67.6196 44.774 68.8976 46.4631C69.5298 47.2987 71.6992 47.4997 72.6264 46.4072C74.2618 44.4881 76.9451 38.5809 73.1447 33.5093Z" fill="#77B255"/>
    <path d="M67.0253 47.9778C67.0253 49.1597 65.0235 50.1204 62.557 50.1204H13.4051C10.9385 50.1204 8.93671 49.1597 8.93671 47.9778V33.3417H67.0253V47.9778Z" fill="#FFCC4D"/>
    <path d="M72.1885 36.6863C72.1885 42.8705 61.9426 47.8862 49.3061 47.8862C36.6651 47.8862 26.4214 42.8705 26.4214 36.6863C26.4214 30.4999 36.6651 25.4864 49.3061 25.4864C61.9426 25.4864 72.1885 30.5021 72.1885 36.6863Z" fill="#BE1931"/>
    <path d="M75.962 24.4631L0 23.3103V29.175H0.0379809C0.0759619 30.4999 0.831113 31.8292 2.45089 32.8212L17.8824 42.2673L33.316 51.7112C36.7254 53.8001 42.5767 53.6057 45.6599 51.7112C48.7497 49.8233 47.2059 48.8805 50.2913 46.9881C53.3767 45.1025 54.9183 46.0453 58.0082 44.1596C61.098 42.2651 73.4441 34.7158 73.4441 34.7158C75.1443 33.6746 75.9933 32.3096 75.9978 30.9423V30.9311L75.962 24.4631Z" fill="#F4900C"/>
    <path d="M73.4441 20.4528L42.5789 1.56504C39.1696 -0.52168 33.6422 -0.52168 30.2306 1.56504L14.797 11.0111C11.7116 12.899 13.2531 13.8441 10.1677 15.732C7.08234 17.6198 5.53853 16.6748 2.45089 18.5649C-0.63674 20.4528 -0.958461 24.0319 2.45089 26.1209L33.316 45.0108C36.7254 47.0998 42.5767 46.9054 45.6599 45.0108C48.7497 43.123 47.2059 42.1801 50.2913 40.2878C53.3767 38.4022 54.9183 39.345 58.0082 37.4593C61.098 35.5647 73.4419 28.0132 73.4419 28.0132C76.8512 25.9265 76.8535 22.5395 73.4441 20.4528Z" fill="#FFAC33"/>
    <path d="M71.1585 22.3451L39.5606 3.45518C39.5606 3.45518 36.1937 1.68794 33.2401 3.45518L17.6857 12.7538C15.0114 14.3513 15.3778 16.0224 12.7035 17.6199C10.0314 19.2195 7.47778 18.8554 4.80347 20.4528C1.64434 22.3451 4.80347 24.2353 4.80347 24.2353L36.3992 43.1252C36.3992 43.1252 39.5583 45.0109 42.7175 43.1252C45.3918 41.5233 44.7863 40.0041 47.4561 38.4022C50.1305 36.8003 52.9232 37.0192 55.5975 35.4218C58.2718 33.8266 71.1541 26.1209 71.1541 26.1209C71.1541 26.1209 74.1099 24.1079 71.1585 22.3451Z" fill="#FFD983"/>
</svg>
