<svg width="350" height="140" viewBox="0 0 350 140" fill="none"
    xmlns="http://www.w3.org/2000/svg">
    <path d="M18.48 139.576C15.1947 139.576 12.08 139.149 9.136 138.296C6.23467 137.4 3.86667 136.205 2.032 134.712C1.05067 133.987 0.56 132.963 0.56 131.64C0.56 130.744 0.816 129.976 1.328 129.336C1.88267 128.653 2.52267 128.312 3.248 128.312C4.016 128.312 4.89067 128.611 5.872 129.208C7.70667 130.531 9.62667 131.491 11.632 132.088C13.6373 132.685 15.856 132.984 18.288 132.984C21.4027 132.984 23.792 132.451 25.456 131.384C27.12 130.275 27.952 128.675 27.952 126.584C27.952 124.963 27.1627 123.725 25.584 122.872C24.048 121.976 21.4667 121.123 17.84 120.312C14.0853 119.501 11.0347 118.563 8.688 117.496C6.34133 116.429 4.57067 115.064 3.376 113.4C2.18133 111.736 1.584 109.624 1.584 107.064C1.584 104.419 2.33067 102.051 3.824 99.96C5.31733 97.8693 7.38667 96.248 10.032 95.096C12.72 93.9013 15.728 93.304 19.056 93.304C25.1573 93.304 30.128 94.9253 33.968 98.168C34.5227 98.6373 34.9067 99.1067 35.12 99.576C35.376 100.003 35.504 100.557 35.504 101.24C35.504 102.136 35.2267 102.925 34.672 103.608C34.16 104.248 33.5413 104.568 32.816 104.568C32.3893 104.568 31.984 104.504 31.6 104.376C31.2587 104.248 30.7893 104.013 30.192 103.672C28.4427 102.392 26.736 101.453 25.072 100.856C23.4507 100.216 21.4453 99.896 19.056 99.896C16.1547 99.896 13.8507 100.493 12.144 101.688C10.48 102.84 9.648 104.461 9.648 106.552C9.648 108.301 10.3947 109.645 11.888 110.584C13.3813 111.523 15.92 112.397 19.504 113.208C23.3013 114.061 26.3733 115.021 28.72 116.088C31.1093 117.112 32.9227 118.435 34.16 120.056C35.44 121.677 36.08 123.704 36.08 126.136C36.08 128.781 35.3333 131.128 33.84 133.176C32.3893 135.181 30.32 136.76 27.632 137.912C24.9867 139.021 21.936 139.576 18.48 139.576ZM80.1565 106.936C83.5698 106.936 86.1725 107.96 87.9645 110.008C89.7992 112.013 90.7165 115.277 90.7165 119.8V135.544C90.7165 136.781 90.3325 137.741 89.5645 138.424C88.8392 139.064 87.8792 139.384 86.6845 139.384C85.5325 139.384 84.5725 139.064 83.8045 138.424C83.0792 137.741 82.7165 136.781 82.7165 135.544V119.8C82.7165 117.453 82.2898 115.789 81.4365 114.808C80.6258 113.784 79.3672 113.272 77.6605 113.272C75.5698 113.272 73.9058 113.997 72.6685 115.448C71.4312 116.856 70.8125 118.797 70.8125 121.272V135.544C70.8125 136.781 70.4285 137.741 69.6605 138.424C68.9352 139.064 67.9965 139.384 66.8445 139.384C65.6925 139.384 64.7325 139.064 63.9645 138.424C63.1965 137.741 62.8125 136.781 62.8125 135.544V119.8C62.8125 117.453 62.3858 115.789 61.5325 114.808C60.7218 113.784 59.4632 113.272 57.7565 113.272C55.6658 113.272 54.0018 113.997 52.7645 115.448C51.5698 116.856 50.9725 118.797 50.9725 121.272V135.544C50.9725 136.781 50.5885 137.741 49.8205 138.424C49.0525 139.064 48.0925 139.384 46.9405 139.384C45.7885 139.384 44.8285 139.064 44.0605 138.424C43.3352 137.741 42.9725 136.781 42.9725 135.544V110.776C42.9725 109.581 43.3565 108.664 44.1245 108.024C44.8925 107.384 45.8525 107.064 47.0045 107.064C48.1138 107.064 49.0098 107.384 49.6925 108.024C50.4178 108.621 50.7805 109.496 50.7805 110.648V112.184C51.7618 110.477 53.0632 109.176 54.6845 108.28C56.3485 107.384 58.2472 106.936 60.3805 106.936C65.0738 106.936 68.2098 108.899 69.7885 112.824C70.7272 111.032 72.1138 109.603 73.9485 108.536C75.7832 107.469 77.8525 106.936 80.1565 106.936ZM112.416 106.936C116.768 106.936 119.989 108.024 122.08 110.2C124.213 112.333 125.28 115.597 125.28 119.992V135.608C125.28 136.76 124.938 137.677 124.256 138.36C123.573 139 122.634 139.32 121.44 139.32C120.33 139.32 119.413 138.979 118.688 138.296C118.005 137.613 117.664 136.717 117.664 135.608V134.2C116.938 135.864 115.786 137.165 114.208 138.104C112.672 139.043 110.88 139.512 108.832 139.512C106.741 139.512 104.842 139.085 103.135 138.232C101.429 137.379 100.085 136.205 99.1035 134.712C98.1222 133.219 97.6315 131.555 97.6315 129.72C97.6315 127.416 98.2075 125.603 99.3595 124.28C100.554 122.957 102.474 121.997 105.12 121.4C107.765 120.803 111.413 120.504 116.064 120.504H117.664V119.032C117.664 116.941 117.216 115.427 116.32 114.488C115.424 113.507 113.973 113.016 111.968 113.016C110.73 113.016 109.472 113.208 108.192 113.592C106.912 113.933 105.397 114.445 103.648 115.128C102.538 115.683 101.728 115.96 101.216 115.96C100.448 115.96 99.8075 115.683 99.2955 115.128C98.8262 114.573 98.5915 113.848 98.5915 112.952C98.5915 112.227 98.7622 111.608 99.1035 111.096C99.4875 110.541 100.106 110.029 100.96 109.56C102.453 108.749 104.224 108.109 106.272 107.64C108.362 107.171 110.41 106.936 112.416 106.936ZM110.432 133.752C112.565 133.752 114.293 133.048 115.616 131.64C116.981 130.189 117.664 128.333 117.664 126.072V124.728H116.512C113.653 124.728 111.434 124.856 109.856 125.112C108.277 125.368 107.146 125.816 106.464 126.456C105.781 127.096 105.44 127.971 105.44 129.08C105.44 130.445 105.909 131.576 106.848 132.472C107.829 133.325 109.024 133.752 110.432 133.752ZM150.882 107.064C151.991 106.979 152.866 107.213 153.506 107.768C154.146 108.323 154.466 109.155 154.466 110.264C154.466 111.416 154.189 112.269 153.634 112.824C153.079 113.379 152.077 113.741 150.626 113.912L148.706 114.104C146.189 114.36 144.333 115.213 143.138 116.664C141.986 118.115 141.41 119.928 141.41 122.104V135.544C141.41 136.781 141.026 137.741 140.258 138.424C139.49 139.064 138.53 139.384 137.378 139.384C136.226 139.384 135.266 139.064 134.498 138.424C133.773 137.741 133.41 136.781 133.41 135.544V110.776C133.41 109.581 133.773 108.664 134.498 108.024C135.266 107.384 136.205 107.064 137.314 107.064C138.423 107.064 139.319 107.384 140.002 108.024C140.685 108.621 141.026 109.496 141.026 110.648V113.208C141.837 111.331 143.031 109.88 144.61 108.856C146.231 107.832 148.023 107.256 149.986 107.128L150.882 107.064ZM177.041 133.432C179.174 133.56 180.241 134.52 180.241 136.312C180.241 137.336 179.814 138.125 178.961 138.68C178.15 139.192 176.977 139.405 175.441 139.32L173.713 139.192C166.545 138.68 162.961 134.84 162.961 127.672V113.72H159.761C158.609 113.72 157.713 113.464 157.073 112.952C156.476 112.44 156.177 111.693 156.177 110.712C156.177 109.731 156.476 108.984 157.073 108.472C157.713 107.96 158.609 107.704 159.761 107.704H162.961V101.816C162.961 100.664 163.324 99.7467 164.049 99.064C164.774 98.3813 165.756 98.04 166.993 98.04C168.188 98.04 169.148 98.3813 169.873 99.064C170.598 99.7467 170.961 100.664 170.961 101.816V107.704H176.401C177.553 107.704 178.428 107.96 179.025 108.472C179.665 108.984 179.985 109.731 179.985 110.712C179.985 111.693 179.665 112.44 179.025 112.952C178.428 113.464 177.553 113.72 176.401 113.72H170.961V128.248C170.961 131.405 172.412 133.091 175.313 133.304L177.041 133.432ZM212.89 115.704C215.493 116.429 217.498 117.752 218.906 119.672C220.357 121.592 221.082 123.939 221.082 126.712C221.082 130.552 219.695 133.56 216.922 135.736C214.191 137.912 210.415 139 205.594 139H189.082C187.845 139 186.863 138.659 186.138 137.976C185.455 137.293 185.114 136.333 185.114 135.096V97.784C185.114 96.5467 185.455 95.5867 186.138 94.904C186.863 94.2213 187.845 93.88 189.082 93.88H204.954C209.647 93.88 213.317 94.9253 215.962 97.016C218.65 99.064 219.994 101.944 219.994 105.656C219.994 108.045 219.354 110.115 218.074 111.864C216.837 113.613 215.109 114.893 212.89 115.704ZM193.178 112.888H203.61C209.285 112.888 212.122 110.776 212.122 106.552C212.122 104.419 211.418 102.84 210.01 101.816C208.602 100.792 206.469 100.28 203.61 100.28H193.178V112.888ZM204.698 132.6C207.685 132.6 209.861 132.067 211.226 131C212.591 129.933 213.274 128.269 213.274 126.008C213.274 123.747 212.57 122.061 211.162 120.952C209.797 119.843 207.642 119.288 204.698 119.288H193.178V132.6H204.698ZM245.57 107.064C246.679 106.979 247.554 107.213 248.194 107.768C248.834 108.323 249.154 109.155 249.154 110.264C249.154 111.416 248.876 112.269 248.322 112.824C247.767 113.379 246.764 113.741 245.314 113.912L243.394 114.104C240.876 114.36 239.02 115.213 237.826 116.664C236.674 118.115 236.098 119.928 236.098 122.104V135.544C236.098 136.781 235.714 137.741 234.946 138.424C234.178 139.064 233.218 139.384 232.066 139.384C230.914 139.384 229.954 139.064 229.186 138.424C228.46 137.741 228.098 136.781 228.098 135.544V110.776C228.098 109.581 228.46 108.664 229.186 108.024C229.954 107.384 230.892 107.064 232.002 107.064C233.111 107.064 234.007 107.384 234.69 108.024C235.372 108.621 235.714 109.496 235.714 110.648V113.208C236.524 111.331 237.719 109.88 239.298 108.856C240.919 107.832 242.711 107.256 244.674 107.128L245.57 107.064ZM276.741 130.424C277.466 130.424 278.042 130.701 278.469 131.256C278.938 131.811 279.173 132.557 279.173 133.496C279.173 134.819 278.383 135.928 276.805 136.824C275.354 137.635 273.711 138.296 271.877 138.808C270.042 139.277 268.293 139.512 266.628 139.512C261.594 139.512 257.605 138.061 254.661 135.16C251.717 132.259 250.245 128.291 250.245 123.256C250.245 120.056 250.885 117.219 252.165 114.744C253.445 112.269 255.237 110.349 257.541 108.984C259.887 107.619 262.533 106.936 265.477 106.936C268.293 106.936 270.746 107.555 272.837 108.792C274.927 110.029 276.549 111.779 277.701 114.04C278.853 116.301 279.429 118.968 279.429 122.04C279.429 123.875 278.618 124.792 276.997 124.792H258.117C258.373 127.736 259.205 129.912 260.613 131.32C262.021 132.685 264.069 133.368 266.757 133.368C268.122 133.368 269.317 133.197 270.341 132.856C271.407 132.515 272.602 132.045 273.925 131.448C275.205 130.765 276.143 130.424 276.741 130.424ZM265.669 112.568C263.493 112.568 261.743 113.251 260.421 114.616C259.141 115.981 258.373 117.944 258.117 120.504H272.581C272.495 117.901 271.855 115.939 270.661 114.616C269.466 113.251 267.802 112.568 265.669 112.568ZM299.541 106.936C303.893 106.936 307.114 108.024 309.205 110.2C311.338 112.333 312.405 115.597 312.405 119.992V135.608C312.405 136.76 312.063 137.677 311.381 138.36C310.698 139 309.759 139.32 308.565 139.32C307.455 139.32 306.538 138.979 305.813 138.296C305.13 137.613 304.789 136.717 304.789 135.608V134.2C304.063 135.864 302.911 137.165 301.333 138.104C299.797 139.043 298.005 139.512 295.957 139.512C293.866 139.512 291.967 139.085 290.26 138.232C288.554 137.379 287.21 136.205 286.229 134.712C285.247 133.219 284.757 131.555 284.757 129.72C284.757 127.416 285.333 125.603 286.485 124.28C287.679 122.957 289.599 121.997 292.245 121.4C294.89 120.803 298.538 120.504 303.189 120.504H304.789V119.032C304.789 116.941 304.341 115.427 303.445 114.488C302.549 113.507 301.098 113.016 299.093 113.016C297.855 113.016 296.597 113.208 295.317 113.592C294.037 113.933 292.522 114.445 290.773 115.128C289.663 115.683 288.853 115.96 288.341 115.96C287.573 115.96 286.933 115.683 286.421 115.128C285.951 114.573 285.717 113.848 285.717 112.952C285.717 112.227 285.887 111.608 286.229 111.096C286.613 110.541 287.231 110.029 288.085 109.56C289.578 108.749 291.349 108.109 293.397 107.64C295.487 107.171 297.535 106.936 299.541 106.936ZM297.557 133.752C299.69 133.752 301.418 133.048 302.741 131.64C304.106 130.189 304.789 128.333 304.789 126.072V124.728H303.637C300.778 124.728 298.559 124.856 296.981 125.112C295.402 125.368 294.271 125.816 293.589 126.456C292.906 127.096 292.565 127.971 292.565 129.08C292.565 130.445 293.034 131.576 293.973 132.472C294.954 133.325 296.149 133.752 297.557 133.752ZM348.375 132.792C349.228 133.603 349.655 134.52 349.655 135.544C349.655 136.525 349.292 137.4 348.567 138.168C347.884 138.936 347.074 139.32 346.135 139.32C345.196 139.32 344.322 138.936 343.511 138.168L328.535 124.6V135.544C328.535 136.781 328.151 137.72 327.383 138.36C326.615 139 325.655 139.32 324.503 139.32C323.351 139.32 322.391 139 321.623 138.36C320.898 137.72 320.535 136.781 320.535 135.544V97.336C320.535 96.0987 320.898 95.16 321.623 94.52C322.391 93.88 323.351 93.56 324.503 93.56C325.655 93.56 326.615 93.88 327.383 94.52C328.151 95.16 328.535 96.0987 328.535 97.336V121.4L342.231 108.28C342.999 107.512 343.874 107.128 344.855 107.128C345.836 107.128 346.69 107.491 347.415 108.216C348.14 108.941 348.503 109.795 348.503 110.776C348.503 111.757 348.098 112.653 347.287 113.464L337.239 122.808L348.375 132.792Z" fill="white"/>
    <path d="M222.419 43.5797L135 42.253L135.044 49.0023C135.087 50.527 135.956 52.0568 137.821 53.1984L155.579 64.0692L173.341 74.9375C177.265 77.3415 183.998 77.1178 187.547 74.9375C191.103 72.7649 189.326 71.6798 192.877 69.5021C196.427 67.332 198.201 68.417 201.757 66.247C205.313 64.0666 219.521 55.3787 219.521 55.3787C221.478 54.1806 222.455 52.6096 222.46 51.0361L222.419 43.5797V43.5797Z" fill="#F4900C"/>
    <path d="M219.521 38.9645C219.521 38.9645 141.374 34.6193 137.821 36.7919C134.267 38.9645 133.897 43.0835 137.821 45.4875L155.579 56.3583L173.341 67.2292C177.265 69.6332 183.998 69.4095 187.547 67.2292C191.103 65.0565 189.326 63.9715 192.877 61.7938C196.427 59.6237 198.201 60.7087 201.757 58.5387C205.313 56.3583 219.519 47.6679 219.519 47.6679C223.442 45.2638 223.445 41.366 219.521 38.9645V38.9645Z" fill="#FFAC33"/>
    <path d="M158.711 54.1883L176.892 65.0591C176.892 65.0591 180.527 67.2292 184.163 65.0591C187.241 63.2156 189.616 59.6237 189.616 59.6237L158.711 54.1883V54.1883Z" fill="#FFD983"/>
    <path d="M219.177 38.5634C214.186 31.9067 150.543 27.2195 140.559 36.5913C138.543 38.4863 134.735 42.2993 138.79 48.0047C140.559 50.9924 144.23 52.9387 144.719 52.0157C145.858 49.8508 148.131 47.9584 151.54 48.141C151.347 48.5986 153.188 56.3866 152.98 56.5615C150.602 58.5824 155.544 65.6068 161.334 61.8658C162.776 64.7146 171.505 71.7467 177.529 62.128C178.728 64.2981 191.311 67.5994 194.805 57.5874C194.777 57.7596 194.784 57.9062 194.738 58.0913C194.509 58.9912 196.595 59.7703 198.718 59.0246C202.29 57.7751 207.447 54.6717 208.36 51.2649C210.908 50.8201 212.818 51.5272 214.289 53.4709C215.017 54.4326 217.513 54.664 218.58 53.4067C220.463 51.198 223.55 44.3999 219.177 38.5634Z" fill="#77B255"/>
    <path d="M212.135 55.2142C212.135 56.5743 209.831 57.6799 206.992 57.6799H150.427C147.588 57.6799 145.285 56.5743 145.285 55.2142V38.3706H212.135V55.2142V55.2142Z" fill="#FFCC4D"/>
    <path d="M218.076 42.2196C218.076 49.3365 206.285 55.1088 191.743 55.1088C177.195 55.1088 165.406 49.3365 165.406 42.2196C165.406 35.1001 177.195 29.3304 191.743 29.3304C206.285 29.3304 218.076 35.1026 218.076 42.2196V42.2196Z" fill="#BE1931"/>
    <path d="M222.419 28.1528L135 26.8261V33.5754H135.044C135.087 35.1001 135.956 36.6299 137.821 37.7715L155.579 48.6423L173.341 59.5106C177.265 61.9146 183.998 61.6909 187.547 59.5106C191.103 57.338 189.326 56.2529 192.877 54.0752C196.427 51.9051 198.201 52.9901 201.757 50.8201C205.313 48.6398 219.521 39.9518 219.521 39.9518C221.478 38.7537 222.455 37.1827 222.46 35.6092V35.5963L222.419 28.1528Z" fill="#F4900C"/>
    <path d="M219.522 23.5376L184.002 1.80109C180.078 -0.600364 173.717 -0.600364 169.791 1.80109L152.03 12.6719C148.479 14.8445 150.253 15.9321 146.702 18.1048C143.152 20.2774 141.375 19.1898 137.822 21.365C134.268 23.5376 133.898 27.6566 137.822 30.0606L173.342 51.7997C177.266 54.2037 183.999 53.98 187.548 51.7997C191.103 49.6271 189.327 48.542 192.878 46.3643C196.428 44.1942 198.202 45.2793 201.758 43.1092C205.314 40.9289 219.52 32.2384 219.52 32.2384C223.443 29.8369 223.446 25.9391 219.522 23.5376V23.5376Z" fill="#FFAC33"/>
    <path d="M216.891 25.7154L180.527 3.97629C180.527 3.97629 176.653 1.94251 173.254 3.97629L155.353 14.6774C152.276 16.5158 152.697 18.439 149.62 20.2774C146.544 22.1183 143.606 21.6992 140.528 23.5376C136.892 25.7154 140.528 27.8906 140.528 27.8906L176.889 49.6296C176.889 49.6296 180.525 51.7997 184.16 49.6296C187.238 47.7861 186.541 46.0377 189.614 44.1942C192.691 42.3507 195.905 42.6027 198.983 40.7643C202.061 38.9285 216.886 30.0606 216.886 30.0606C216.886 30.0606 220.288 27.744 216.891 25.7154Z" fill="#FFD983"/>
</svg>
