<svg width="449" height="67" viewBox="0 0 449 67" fill="none"
    xmlns="http://www.w3.org/2000/svg">
    <path d="M117.48 54.576C114.195 54.576 111.08 54.1493 108.136 53.296C105.235 52.4 102.867 51.2053 101.032 49.712C100.051 48.9867 99.56 47.9627 99.56 46.64C99.56 45.744 99.816 44.976 100.328 44.336C100.883 43.6533 101.523 43.312 102.248 43.312C103.016 43.312 103.891 43.6107 104.872 44.208C106.707 45.5307 108.627 46.4907 110.632 47.088C112.637 47.6853 114.856 47.984 117.288 47.984C120.403 47.984 122.792 47.4507 124.456 46.384C126.12 45.2747 126.952 43.6747 126.952 41.584C126.952 39.9627 126.163 38.7253 124.584 37.872C123.048 36.976 120.467 36.1227 116.84 35.312C113.085 34.5013 110.035 33.5627 107.688 32.496C105.341 31.4293 103.571 30.064 102.376 28.4C101.181 26.736 100.584 24.624 100.584 22.064C100.584 19.4187 101.331 17.0507 102.824 14.96C104.317 12.8693 106.387 11.248 109.032 10.096C111.72 8.90133 114.728 8.304 118.056 8.304C124.157 8.304 129.128 9.92533 132.968 13.168C133.523 13.6373 133.907 14.1067 134.12 14.576C134.376 15.0027 134.504 15.5573 134.504 16.24C134.504 17.136 134.227 17.9253 133.672 18.608C133.16 19.248 132.541 19.568 131.816 19.568C131.389 19.568 130.984 19.504 130.6 19.376C130.259 19.248 129.789 19.0133 129.192 18.672C127.443 17.392 125.736 16.4533 124.072 15.856C122.451 15.216 120.445 14.896 118.056 14.896C115.155 14.896 112.851 15.4933 111.144 16.688C109.48 17.84 108.648 19.4613 108.648 21.552C108.648 23.3013 109.395 24.6453 110.888 25.584C112.381 26.5227 114.92 27.3973 118.504 28.208C122.301 29.0613 125.373 30.0213 127.72 31.088C130.109 32.112 131.923 33.4347 133.16 35.056C134.44 36.6773 135.08 38.704 135.08 41.136C135.08 43.7813 134.333 46.128 132.84 48.176C131.389 50.1813 129.32 51.76 126.632 52.912C123.987 54.0213 120.936 54.576 117.48 54.576ZM179.157 21.936C182.57 21.936 185.173 22.96 186.965 25.008C188.799 27.0133 189.717 30.2773 189.717 34.8V50.544C189.717 51.7813 189.333 52.7413 188.565 53.424C187.839 54.064 186.879 54.384 185.685 54.384C184.533 54.384 183.573 54.064 182.805 53.424C182.079 52.7413 181.717 51.7813 181.717 50.544V34.8C181.717 32.4533 181.29 30.7893 180.437 29.808C179.626 28.784 178.367 28.272 176.661 28.272C174.57 28.272 172.906 28.9973 171.669 30.448C170.431 31.856 169.812 33.7973 169.812 36.272V50.544C169.812 51.7813 169.429 52.7413 168.661 53.424C167.935 54.064 166.997 54.384 165.845 54.384C164.693 54.384 163.733 54.064 162.965 53.424C162.197 52.7413 161.813 51.7813 161.813 50.544V34.8C161.813 32.4533 161.386 30.7893 160.533 29.808C159.722 28.784 158.463 28.272 156.757 28.272C154.666 28.272 153.002 28.9973 151.765 30.448C150.57 31.856 149.973 33.7973 149.973 36.272V50.544C149.973 51.7813 149.589 52.7413 148.821 53.424C148.053 54.064 147.093 54.384 145.941 54.384C144.789 54.384 143.829 54.064 143.061 53.424C142.335 52.7413 141.973 51.7813 141.973 50.544V25.776C141.973 24.5813 142.357 23.664 143.125 23.024C143.893 22.384 144.853 22.064 146.005 22.064C147.114 22.064 148.01 22.384 148.693 23.024C149.418 23.6213 149.781 24.496 149.781 25.648V27.184C150.762 25.4773 152.063 24.176 153.685 23.28C155.349 22.384 157.247 21.936 159.381 21.936C164.074 21.936 167.21 23.8987 168.789 27.824C169.727 26.032 171.114 24.6027 172.949 23.536C174.783 22.4693 176.853 21.936 179.157 21.936ZM211.416 21.936C215.768 21.936 218.989 23.024 221.08 25.2C223.213 27.3333 224.28 30.5973 224.28 34.992V50.608C224.28 51.76 223.938 52.6773 223.256 53.36C222.573 54 221.634 54.32 220.44 54.32C219.33 54.32 218.413 53.9787 217.688 53.296C217.005 52.6133 216.664 51.7173 216.664 50.608V49.2C215.938 50.864 214.786 52.1653 213.208 53.104C211.672 54.0427 209.88 54.512 207.832 54.512C205.741 54.512 203.842 54.0853 202.135 53.232C200.429 52.3787 199.085 51.2053 198.104 49.712C197.122 48.2187 196.632 46.5547 196.632 44.72C196.632 42.416 197.208 40.6027 198.36 39.28C199.554 37.9573 201.474 36.9973 204.12 36.4C206.765 35.8027 210.413 35.504 215.064 35.504H216.664V34.032C216.664 31.9413 216.216 30.4267 215.32 29.488C214.424 28.5067 212.973 28.016 210.968 28.016C209.73 28.016 208.472 28.208 207.192 28.592C205.912 28.9333 204.397 29.4453 202.648 30.128C201.538 30.6827 200.728 30.96 200.216 30.96C199.448 30.96 198.808 30.6827 198.296 30.128C197.826 29.5733 197.592 28.848 197.592 27.952C197.592 27.2267 197.762 26.608 198.104 26.096C198.488 25.5413 199.106 25.0293 199.96 24.56C201.453 23.7493 203.224 23.1093 205.272 22.64C207.362 22.1707 209.41 21.936 211.416 21.936ZM209.432 48.752C211.565 48.752 213.293 48.048 214.616 46.64C215.981 45.1893 216.664 43.3333 216.664 41.072V39.728H215.512C212.653 39.728 210.434 39.856 208.856 40.112C207.277 40.368 206.146 40.816 205.464 41.456C204.781 42.096 204.44 42.9707 204.44 44.08C204.44 45.4453 204.909 46.576 205.848 47.472C206.829 48.3253 208.024 48.752 209.432 48.752ZM249.882 22.064C250.991 21.9787 251.866 22.2133 252.506 22.768C253.146 23.3227 253.466 24.1547 253.466 25.264C253.466 26.416 253.189 27.2693 252.634 27.824C252.079 28.3787 251.077 28.7413 249.626 28.912L247.706 29.104C245.189 29.36 243.333 30.2133 242.138 31.664C240.986 33.1147 240.41 34.928 240.41 37.104V50.544C240.41 51.7813 240.026 52.7413 239.258 53.424C238.49 54.064 237.53 54.384 236.378 54.384C235.226 54.384 234.266 54.064 233.498 53.424C232.773 52.7413 232.41 51.7813 232.41 50.544V25.776C232.41 24.5813 232.773 23.664 233.498 23.024C234.266 22.384 235.205 22.064 236.314 22.064C237.423 22.064 238.319 22.384 239.002 23.024C239.685 23.6213 240.026 24.496 240.026 25.648V28.208C240.837 26.3307 242.031 24.88 243.61 23.856C245.231 22.832 247.023 22.256 248.986 22.128L249.882 22.064ZM276.041 48.432C278.174 48.56 279.241 49.52 279.241 51.312C279.241 52.336 278.814 53.1253 277.961 53.68C277.15 54.192 275.977 54.4053 274.441 54.32L272.713 54.192C265.545 53.68 261.961 49.84 261.961 42.672V28.72H258.761C257.609 28.72 256.713 28.464 256.073 27.952C255.476 27.44 255.177 26.6933 255.177 25.712C255.177 24.7307 255.476 23.984 256.073 23.472C256.713 22.96 257.609 22.704 258.761 22.704H261.961V16.816C261.961 15.664 262.324 14.7467 263.049 14.064C263.774 13.3813 264.756 13.04 265.993 13.04C267.188 13.04 268.148 13.3813 268.873 14.064C269.598 14.7467 269.961 15.664 269.961 16.816V22.704H275.401C276.553 22.704 277.428 22.96 278.025 23.472C278.665 23.984 278.985 24.7307 278.985 25.712C278.985 26.6933 278.665 27.44 278.025 27.952C277.428 28.464 276.553 28.72 275.401 28.72H269.961V43.248C269.961 46.4053 271.412 48.0907 274.313 48.304L276.041 48.432Z" fill="black"/>
    <path d="M311.89 30.704C314.493 31.4293 316.498 32.752 317.906 34.672C319.357 36.592 320.082 38.9387 320.082 41.712C320.082 45.552 318.695 48.56 315.922 50.736C313.191 52.912 309.415 54 304.594 54H288.082C286.845 54 285.863 53.6587 285.138 52.976C284.455 52.2933 284.114 51.3333 284.114 50.096V12.784C284.114 11.5467 284.455 10.5867 285.138 9.904C285.863 9.22133 286.845 8.88 288.082 8.88H303.954C308.647 8.88 312.317 9.92533 314.962 12.016C317.65 14.064 318.994 16.944 318.994 20.656C318.994 23.0453 318.354 25.1147 317.074 26.864C315.837 28.6133 314.109 29.8933 311.89 30.704ZM292.178 27.888H302.61C308.285 27.888 311.122 25.776 311.122 21.552C311.122 19.4187 310.418 17.84 309.01 16.816C307.602 15.792 305.469 15.28 302.61 15.28H292.178V27.888ZM303.698 47.6C306.685 47.6 308.861 47.0667 310.226 46C311.591 44.9333 312.274 43.2693 312.274 41.008C312.274 38.7467 311.57 37.0613 310.162 35.952C308.797 34.8427 306.642 34.288 303.698 34.288H292.178V47.6H303.698ZM344.57 22.064C345.679 21.9787 346.554 22.2133 347.194 22.768C347.834 23.3227 348.154 24.1547 348.154 25.264C348.154 26.416 347.876 27.2693 347.322 27.824C346.767 28.3787 345.764 28.7413 344.314 28.912L342.394 29.104C339.876 29.36 338.02 30.2133 336.826 31.664C335.674 33.1147 335.098 34.928 335.098 37.104V50.544C335.098 51.7813 334.714 52.7413 333.946 53.424C333.178 54.064 332.218 54.384 331.066 54.384C329.914 54.384 328.954 54.064 328.186 53.424C327.46 52.7413 327.098 51.7813 327.098 50.544V25.776C327.098 24.5813 327.46 23.664 328.186 23.024C328.954 22.384 329.892 22.064 331.002 22.064C332.111 22.064 333.007 22.384 333.69 23.024C334.372 23.6213 334.714 24.496 334.714 25.648V28.208C335.524 26.3307 336.719 24.88 338.298 23.856C339.919 22.832 341.711 22.256 343.674 22.128L344.57 22.064ZM375.741 45.424C376.466 45.424 377.042 45.7013 377.469 46.256C377.938 46.8107 378.173 47.5573 378.173 48.496C378.173 49.8187 377.383 50.928 375.805 51.824C374.354 52.6347 372.711 53.296 370.877 53.808C369.042 54.2773 367.293 54.512 365.628 54.512C360.594 54.512 356.605 53.0613 353.661 50.16C350.717 47.2587 349.245 43.2907 349.245 38.256C349.245 35.056 349.885 32.2187 351.165 29.744C352.445 27.2693 354.237 25.3493 356.541 23.984C358.887 22.6187 361.533 21.936 364.477 21.936C367.293 21.936 369.746 22.5547 371.837 23.792C373.927 25.0293 375.549 26.7787 376.701 29.04C377.853 31.3013 378.429 33.968 378.429 37.04C378.429 38.8747 377.618 39.792 375.997 39.792H357.117C357.373 42.736 358.205 44.912 359.613 46.32C361.021 47.6853 363.069 48.368 365.757 48.368C367.122 48.368 368.317 48.1973 369.341 47.856C370.407 47.5147 371.602 47.0453 372.925 46.448C374.205 45.7653 375.143 45.424 375.741 45.424ZM364.669 27.568C362.493 27.568 360.743 28.2507 359.421 29.616C358.141 30.9813 357.373 32.944 357.117 35.504H371.581C371.495 32.9013 370.855 30.9387 369.661 29.616C368.466 28.2507 366.802 27.568 364.669 27.568ZM398.541 21.936C402.893 21.936 406.114 23.024 408.205 25.2C410.338 27.3333 411.405 30.5973 411.405 34.992V50.608C411.405 51.76 411.063 52.6773 410.381 53.36C409.698 54 408.759 54.32 407.565 54.32C406.455 54.32 405.538 53.9787 404.813 53.296C404.13 52.6133 403.789 51.7173 403.789 50.608V49.2C403.063 50.864 401.911 52.1653 400.333 53.104C398.797 54.0427 397.005 54.512 394.957 54.512C392.866 54.512 390.967 54.0853 389.26 53.232C387.554 52.3787 386.21 51.2053 385.229 49.712C384.247 48.2187 383.757 46.5547 383.757 44.72C383.757 42.416 384.333 40.6027 385.485 39.28C386.679 37.9573 388.599 36.9973 391.245 36.4C393.89 35.8027 397.538 35.504 402.189 35.504H403.789V34.032C403.789 31.9413 403.341 30.4267 402.445 29.488C401.549 28.5067 400.098 28.016 398.093 28.016C396.855 28.016 395.597 28.208 394.317 28.592C393.037 28.9333 391.522 29.4453 389.773 30.128C388.663 30.6827 387.853 30.96 387.341 30.96C386.573 30.96 385.933 30.6827 385.421 30.128C384.951 29.5733 384.717 28.848 384.717 27.952C384.717 27.2267 384.887 26.608 385.229 26.096C385.613 25.5413 386.231 25.0293 387.085 24.56C388.578 23.7493 390.349 23.1093 392.397 22.64C394.487 22.1707 396.535 21.936 398.541 21.936ZM396.557 48.752C398.69 48.752 400.418 48.048 401.741 46.64C403.106 45.1893 403.789 43.3333 403.789 41.072V39.728H402.637C399.778 39.728 397.559 39.856 395.981 40.112C394.402 40.368 393.271 40.816 392.589 41.456C391.906 42.096 391.565 42.9707 391.565 44.08C391.565 45.4453 392.034 46.576 392.973 47.472C393.954 48.3253 395.149 48.752 396.557 48.752ZM447.375 47.792C448.228 48.6027 448.655 49.52 448.655 50.544C448.655 51.5253 448.292 52.4 447.567 53.168C446.884 53.936 446.074 54.32 445.135 54.32C444.196 54.32 443.322 53.936 442.511 53.168L427.535 39.6V50.544C427.535 51.7813 427.151 52.72 426.383 53.36C425.615 54 424.655 54.32 423.503 54.32C422.351 54.32 421.391 54 420.623 53.36C419.898 52.72 419.535 51.7813 419.535 50.544V12.336C419.535 11.0987 419.898 10.16 420.623 9.52C421.391 8.88 422.351 8.56 423.503 8.56C424.655 8.56 425.615 8.88 426.383 9.52C427.151 10.16 427.535 11.0987 427.535 12.336V36.4L441.231 23.28C441.999 22.512 442.874 22.128 443.855 22.128C444.836 22.128 445.69 22.4907 446.415 23.216C447.14 23.9413 447.503 24.7947 447.503 25.776C447.503 26.7573 447.098 27.6533 446.287 28.464L436.239 37.808L447.375 47.792Z" fill="#0277BD"/>
    <path d="M75.962 37.8682L0 36.7153L0.0379809 42.58C0.0759619 43.9049 0.831113 45.2342 2.45089 46.2262L17.8824 55.6723L33.316 65.1162C36.7254 67.2051 42.5767 67.0108 45.6599 65.1162C48.7497 63.2283 47.2059 62.2855 50.2913 60.3931C53.3767 58.5075 54.9183 59.4503 58.0082 57.5647C61.098 55.6701 73.4441 48.1208 73.4441 48.1208C75.1443 47.0797 75.9933 45.7146 75.9978 44.3473L75.962 37.8682Z" fill="#F4900C"/>
    <path d="M73.4441 33.8578C73.4441 33.8578 5.53853 30.0821 2.45089 31.97C-0.63674 33.8578 -0.958461 37.437 2.45089 39.5259L17.8824 48.972L33.316 58.4181C36.7254 60.5071 42.5767 60.3127 45.6599 58.4181C48.7497 56.5303 47.2059 55.5874 50.2913 53.6951C53.3767 51.8094 54.9183 52.7523 58.0082 50.8666C61.098 48.972 73.4419 41.4205 73.4419 41.4205C76.8512 39.3316 76.8535 35.9446 73.4441 33.8578Z" fill="#FFAC33"/>
    <path d="M20.6035 47.0864L36.4014 56.5325C36.4014 56.5325 39.5605 58.4181 42.7197 56.5325C45.394 54.9306 47.4584 51.8094 47.4584 51.8094L20.6035 47.0864Z" fill="#FFD983"/>
    <path d="M73.1447 33.5093C68.8082 27.725 13.5056 23.6521 4.83031 31.7957C3.07872 33.4423 -0.230097 36.7556 3.2932 41.7132C4.83031 44.3093 8.02072 46.0006 8.44521 45.1985C9.43495 43.3174 11.41 41.673 14.3725 41.8316C14.2049 42.2293 15.8046 48.9966 15.6236 49.1486C13.557 50.9046 17.8511 57.0084 22.8825 53.7577C24.1358 56.2331 31.7209 62.3436 36.9555 53.9855C37.9967 55.8712 48.9307 58.7399 51.967 50.04C51.9424 50.1897 51.9491 50.317 51.9089 50.4779C51.71 51.2599 53.522 51.9368 55.3674 51.2889C58.4707 50.2031 62.9524 47.5064 63.7456 44.5461C65.9596 44.1596 67.6196 44.774 68.8976 46.4631C69.5298 47.2987 71.6992 47.4997 72.6264 46.4072C74.2618 44.4881 76.9451 38.5809 73.1447 33.5093Z" fill="#77B255"/>
    <path d="M67.0253 47.9778C67.0253 49.1597 65.0235 50.1204 62.557 50.1204H13.4051C10.9385 50.1204 8.93671 49.1597 8.93671 47.9778V33.3417H67.0253V47.9778Z" fill="#FFCC4D"/>
    <path d="M72.1885 36.6863C72.1885 42.8705 61.9426 47.8862 49.3061 47.8862C36.6651 47.8862 26.4214 42.8705 26.4214 36.6863C26.4214 30.4999 36.6651 25.4864 49.3061 25.4864C61.9426 25.4864 72.1885 30.5021 72.1885 36.6863Z" fill="#BE1931"/>
    <path d="M75.962 24.4631L0 23.3103V29.175H0.0379809C0.0759619 30.4999 0.831113 31.8292 2.45089 32.8212L17.8824 42.2673L33.316 51.7112C36.7254 53.8001 42.5767 53.6057 45.6599 51.7112C48.7497 49.8233 47.2059 48.8805 50.2913 46.9881C53.3767 45.1025 54.9183 46.0453 58.0082 44.1596C61.098 42.2651 73.4441 34.7158 73.4441 34.7158C75.1443 33.6746 75.9933 32.3096 75.9978 30.9423V30.9311L75.962 24.4631Z" fill="#F4900C"/>
    <path d="M73.4441 20.4528L42.5789 1.56504C39.1696 -0.52168 33.6422 -0.52168 30.2306 1.56504L14.797 11.0111C11.7116 12.899 13.2531 13.8441 10.1677 15.732C7.08234 17.6198 5.53853 16.6748 2.45089 18.5649C-0.63674 20.4528 -0.958461 24.0319 2.45089 26.1209L33.316 45.0108C36.7254 47.0998 42.5767 46.9054 45.6599 45.0108C48.7497 43.123 47.2059 42.1801 50.2913 40.2878C53.3767 38.4022 54.9183 39.345 58.0082 37.4593C61.098 35.5647 73.4419 28.0132 73.4419 28.0132C76.8512 25.9265 76.8535 22.5395 73.4441 20.4528Z" fill="#FFAC33"/>
    <path d="M71.1585 22.3451L39.5606 3.45518C39.5606 3.45518 36.1937 1.68794 33.2401 3.45518L17.6857 12.7538C15.0114 14.3513 15.3778 16.0224 12.7035 17.6199C10.0314 19.2195 7.47778 18.8554 4.80347 20.4528C1.64434 22.3451 4.80347 24.2353 4.80347 24.2353L36.3992 43.1252C36.3992 43.1252 39.5583 45.0109 42.7175 43.1252C45.3918 41.5233 44.7863 40.0041 47.4561 38.4022C50.1305 36.8003 52.9232 37.0192 55.5975 35.4218C58.2718 33.8266 71.1541 26.1209 71.1541 26.1209C71.1541 26.1209 74.1099 24.1079 71.1585 22.3451Z" fill="#FFD983"/>
</svg>
