<svg width="498" height="98" viewBox="0 0 498 98" fill="none"
    xmlns="http://www.w3.org/2000/svg">
    <path d="M137.48 71.576C134.195 71.576 131.08 71.1493 128.136 70.296C125.235 69.4 122.867 68.2053 121.032 66.712C120.051 65.9867 119.56 64.9627 119.56 63.64C119.56 62.744 119.816 61.976 120.328 61.336C120.883 60.6533 121.523 60.312 122.248 60.312C123.016 60.312 123.891 60.6107 124.872 61.208C126.707 62.5307 128.627 63.4907 130.632 64.088C132.637 64.6853 134.856 64.984 137.288 64.984C140.403 64.984 142.792 64.4507 144.456 63.384C146.12 62.2747 146.952 60.6747 146.952 58.584C146.952 56.9627 146.163 55.7253 144.584 54.872C143.048 53.976 140.467 53.1227 136.84 52.312C133.085 51.5013 130.035 50.5627 127.688 49.496C125.341 48.4293 123.571 47.064 122.376 45.4C121.181 43.736 120.584 41.624 120.584 39.064C120.584 36.4187 121.331 34.0507 122.824 31.96C124.317 29.8693 126.387 28.248 129.032 27.096C131.72 25.9013 134.728 25.304 138.056 25.304C144.157 25.304 149.128 26.9253 152.968 30.168C153.523 30.6373 153.907 31.1067 154.12 31.576C154.376 32.0027 154.504 32.5573 154.504 33.24C154.504 34.136 154.227 34.9253 153.672 35.608C153.16 36.248 152.541 36.568 151.816 36.568C151.389 36.568 150.984 36.504 150.6 36.376C150.259 36.248 149.789 36.0133 149.192 35.672C147.443 34.392 145.736 33.4533 144.072 32.856C142.451 32.216 140.445 31.896 138.056 31.896C135.155 31.896 132.851 32.4933 131.144 33.688C129.48 34.84 128.648 36.4613 128.648 38.552C128.648 40.3013 129.395 41.6453 130.888 42.584C132.381 43.5227 134.92 44.3973 138.504 45.208C142.301 46.0613 145.373 47.0213 147.72 48.088C150.109 49.112 151.923 50.4347 153.16 52.056C154.44 53.6773 155.08 55.704 155.08 58.136C155.08 60.7813 154.333 63.128 152.84 65.176C151.389 67.1813 149.32 68.76 146.632 69.912C143.987 71.0213 140.936 71.576 137.48 71.576ZM202.357 38.936C205.77 38.936 208.373 39.96 210.165 42.008C211.999 44.0133 212.917 47.2773 212.917 51.8V67.544C212.917 68.7813 212.533 69.7413 211.765 70.424C211.039 71.064 210.079 71.384 208.885 71.384C207.733 71.384 206.773 71.064 206.005 70.424C205.279 69.7413 204.917 68.7813 204.917 67.544V51.8C204.917 49.4533 204.49 47.7893 203.637 46.808C202.826 45.784 201.567 45.272 199.861 45.272C197.77 45.272 196.106 45.9973 194.869 47.448C193.631 48.856 193.013 50.7973 193.013 53.272V67.544C193.013 68.7813 192.629 69.7413 191.861 70.424C191.135 71.064 190.197 71.384 189.045 71.384C187.893 71.384 186.933 71.064 186.165 70.424C185.397 69.7413 185.013 68.7813 185.013 67.544V51.8C185.013 49.4533 184.586 47.7893 183.733 46.808C182.922 45.784 181.663 45.272 179.957 45.272C177.866 45.272 176.202 45.9973 174.965 47.448C173.77 48.856 173.173 50.7973 173.173 53.272V67.544C173.173 68.7813 172.789 69.7413 172.021 70.424C171.253 71.064 170.293 71.384 169.141 71.384C167.989 71.384 167.029 71.064 166.261 70.424C165.535 69.7413 165.173 68.7813 165.173 67.544V42.776C165.173 41.5813 165.557 40.664 166.325 40.024C167.093 39.384 168.053 39.064 169.205 39.064C170.314 39.064 171.21 39.384 171.893 40.024C172.618 40.6213 172.981 41.496 172.981 42.648V44.184C173.962 42.4773 175.263 41.176 176.885 40.28C178.549 39.384 180.447 38.936 182.581 38.936C187.274 38.936 190.41 40.8987 191.989 44.824C192.927 43.032 194.314 41.6027 196.149 40.536C197.983 39.4693 200.053 38.936 202.357 38.936ZM237.816 38.936C242.168 38.936 245.389 40.024 247.48 42.2C249.613 44.3333 250.68 47.5973 250.68 51.992V67.608C250.68 68.76 250.338 69.6773 249.656 70.36C248.973 71 248.034 71.32 246.84 71.32C245.73 71.32 244.813 70.9787 244.088 70.296C243.405 69.6133 243.064 68.7173 243.064 67.608V66.2C242.338 67.864 241.186 69.1653 239.608 70.104C238.072 71.0427 236.28 71.512 234.232 71.512C232.141 71.512 230.242 71.0853 228.536 70.232C226.829 69.3787 225.485 68.2053 224.504 66.712C223.522 65.2187 223.032 63.5547 223.032 61.72C223.032 59.416 223.608 57.6027 224.76 56.28C225.954 54.9573 227.874 53.9973 230.52 53.4C233.165 52.8027 236.813 52.504 241.464 52.504H243.064V51.032C243.064 48.9413 242.616 47.4267 241.72 46.488C240.824 45.5067 239.373 45.016 237.368 45.016C236.13 45.016 234.872 45.208 233.592 45.592C232.312 45.9333 230.797 46.4453 229.048 47.128C227.938 47.6827 227.128 47.96 226.616 47.96C225.848 47.96 225.208 47.6827 224.696 47.128C224.226 46.5733 223.992 45.848 223.992 44.952C223.992 44.2267 224.162 43.608 224.504 43.096C224.888 42.5413 225.506 42.0293 226.36 41.56C227.853 40.7493 229.624 40.1093 231.672 39.64C233.762 39.1707 235.81 38.936 237.816 38.936ZM235.832 65.752C237.965 65.752 239.693 65.048 241.016 63.64C242.381 62.1893 243.064 60.3333 243.064 58.072V56.728H241.912C239.053 56.728 236.834 56.856 235.256 57.112C233.677 57.368 232.546 57.816 231.864 58.456C231.181 59.096 230.84 59.9707 230.84 61.08C230.84 62.4453 231.309 63.576 232.248 64.472C233.229 65.3253 234.424 65.752 235.832 65.752ZM279.482 39.064C280.591 38.9787 281.466 39.2133 282.106 39.768C282.746 40.3227 283.066 41.1547 283.066 42.264C283.066 43.416 282.789 44.2693 282.234 44.824C281.679 45.3787 280.677 45.7413 279.226 45.912L277.306 46.104C274.789 46.36 272.933 47.2133 271.738 48.664C270.586 50.1147 270.01 51.928 270.01 54.104V67.544C270.01 68.7813 269.626 69.7413 268.858 70.424C268.09 71.064 267.13 71.384 265.978 71.384C264.826 71.384 263.866 71.064 263.098 70.424C262.373 69.7413 262.01 68.7813 262.01 67.544V42.776C262.01 41.5813 262.373 40.664 263.098 40.024C263.866 39.384 264.805 39.064 265.914 39.064C267.023 39.064 267.919 39.384 268.602 40.024C269.285 40.6213 269.626 41.496 269.626 42.648V45.208C270.437 43.3307 271.631 41.88 273.21 40.856C274.831 39.832 276.623 39.256 278.586 39.128L279.482 39.064ZM308.841 65.432C310.974 65.56 312.041 66.52 312.041 68.312C312.041 69.336 311.614 70.1253 310.761 70.68C309.95 71.192 308.777 71.4053 307.241 71.32L305.513 71.192C298.345 70.68 294.761 66.84 294.761 59.672V45.72H291.561C290.409 45.72 289.513 45.464 288.873 44.952C288.276 44.44 287.977 43.6933 287.977 42.712C287.977 41.7307 288.276 40.984 288.873 40.472C289.513 39.96 290.409 39.704 291.561 39.704H294.761V33.816C294.761 32.664 295.124 31.7467 295.849 31.064C296.574 30.3813 297.556 30.04 298.793 30.04C299.988 30.04 300.948 30.3813 301.673 31.064C302.398 31.7467 302.761 32.664 302.761 33.816V39.704H308.201C309.353 39.704 310.228 39.96 310.825 40.472C311.465 40.984 311.785 41.7307 311.785 42.712C311.785 43.6933 311.465 44.44 310.825 44.952C310.228 45.464 309.353 45.72 308.201 45.72H302.761V60.248C302.761 63.4053 304.212 65.0907 307.113 65.304L308.841 65.432ZM347.89 47.704C350.493 48.4293 352.498 49.752 353.906 51.672C355.357 53.592 356.082 55.9387 356.082 58.712C356.082 62.552 354.695 65.56 351.922 67.736C349.191 69.912 345.415 71 340.594 71H324.082C322.845 71 321.863 70.6587 321.138 69.976C320.455 69.2933 320.114 68.3333 320.114 67.096V29.784C320.114 28.5467 320.455 27.5867 321.138 26.904C321.863 26.2213 322.845 25.88 324.082 25.88H339.954C344.647 25.88 348.317 26.9253 350.962 29.016C353.65 31.064 354.994 33.944 354.994 37.656C354.994 40.0453 354.354 42.1147 353.074 43.864C351.837 45.6133 350.109 46.8933 347.89 47.704ZM328.178 44.888H338.61C344.285 44.888 347.122 42.776 347.122 38.552C347.122 36.4187 346.418 34.84 345.01 33.816C343.602 32.792 341.469 32.28 338.61 32.28H328.178V44.888ZM339.698 64.6C342.685 64.6 344.861 64.0667 346.226 63C347.591 61.9333 348.274 60.2693 348.274 58.008C348.274 55.7467 347.57 54.0613 346.162 52.952C344.797 51.8427 342.642 51.288 339.698 51.288H328.178V64.6H339.698ZM383.769 39.064C384.879 38.9787 385.753 39.2133 386.393 39.768C387.033 40.3227 387.353 41.1547 387.353 42.264C387.353 43.416 387.076 44.2693 386.521 44.824C385.967 45.3787 384.964 45.7413 383.513 45.912L381.593 46.104C379.076 46.36 377.22 47.2133 376.025 48.664C374.873 50.1147 374.297 51.928 374.297 54.104V67.544C374.297 68.7813 373.913 69.7413 373.145 70.424C372.377 71.064 371.417 71.384 370.265 71.384C369.113 71.384 368.153 71.064 367.385 70.424C366.66 69.7413 366.297 68.7813 366.297 67.544V42.776C366.297 41.5813 366.66 40.664 367.385 40.024C368.153 39.384 369.092 39.064 370.201 39.064C371.311 39.064 372.207 39.384 372.889 40.024C373.572 40.6213 373.913 41.496 373.913 42.648V45.208C374.724 43.3307 375.919 41.88 377.497 40.856C379.119 39.832 380.911 39.256 382.873 39.128L383.769 39.064ZM418.14 62.424C418.866 62.424 419.442 62.7013 419.868 63.256C420.338 63.8107 420.572 64.5573 420.572 65.496C420.572 66.8187 419.783 67.928 418.204 68.824C416.754 69.6347 415.111 70.296 413.276 70.808C411.442 71.2773 409.692 71.512 408.028 71.512C402.994 71.512 399.004 70.0613 396.06 67.16C393.116 64.2587 391.644 60.2907 391.644 55.256C391.644 52.056 392.284 49.2187 393.564 46.744C394.844 44.2693 396.636 42.3493 398.94 40.984C401.287 39.6187 403.932 38.936 406.876 38.936C409.692 38.936 412.146 39.5547 414.236 40.792C416.327 42.0293 417.948 43.7787 419.1 46.04C420.252 48.3013 420.828 50.968 420.828 54.04C420.828 55.8747 420.018 56.792 418.396 56.792H399.516C399.772 59.736 400.604 61.912 402.012 63.32C403.42 64.6853 405.468 65.368 408.156 65.368C409.522 65.368 410.716 65.1973 411.74 64.856C412.807 64.5147 414.002 64.0453 415.324 63.448C416.604 62.7653 417.543 62.424 418.14 62.424ZM407.068 44.568C404.892 44.568 403.143 45.2507 401.82 46.616C400.54 47.9813 399.772 49.944 399.516 52.504H413.98C413.895 49.9013 413.255 47.9387 412.06 46.616C410.866 45.2507 409.202 44.568 407.068 44.568ZM444.141 38.936C448.493 38.936 451.714 40.024 453.805 42.2C455.938 44.3333 457.005 47.5973 457.005 51.992V67.608C457.005 68.76 456.663 69.6773 455.981 70.36C455.298 71 454.359 71.32 453.165 71.32C452.055 71.32 451.138 70.9787 450.413 70.296C449.73 69.6133 449.389 68.7173 449.389 67.608V66.2C448.663 67.864 447.511 69.1653 445.933 70.104C444.397 71.0427 442.605 71.512 440.557 71.512C438.466 71.512 436.567 71.0853 434.861 70.232C433.154 69.3787 431.81 68.2053 430.829 66.712C429.847 65.2187 429.357 63.5547 429.357 61.72C429.357 59.416 429.933 57.6027 431.085 56.28C432.279 54.9573 434.199 53.9973 436.845 53.4C439.49 52.8027 443.138 52.504 447.789 52.504H449.389V51.032C449.389 48.9413 448.941 47.4267 448.045 46.488C447.149 45.5067 445.698 45.016 443.693 45.016C442.455 45.016 441.197 45.208 439.917 45.592C438.637 45.9333 437.122 46.4453 435.373 47.128C434.263 47.6827 433.453 47.96 432.941 47.96C432.173 47.96 431.533 47.6827 431.021 47.128C430.551 46.5733 430.317 45.848 430.317 44.952C430.317 44.2267 430.487 43.608 430.829 43.096C431.213 42.5413 431.831 42.0293 432.685 41.56C434.178 40.7493 435.949 40.1093 437.997 39.64C440.087 39.1707 442.135 38.936 444.141 38.936ZM442.157 65.752C444.29 65.752 446.018 65.048 447.341 63.64C448.706 62.1893 449.389 60.3333 449.389 58.072V56.728H448.237C445.378 56.728 443.159 56.856 441.581 57.112C440.002 57.368 438.871 57.816 438.189 58.456C437.506 59.096 437.165 59.9707 437.165 61.08C437.165 62.4453 437.634 63.576 438.573 64.472C439.554 65.3253 440.749 65.752 442.157 65.752ZM496.175 64.792C497.028 65.6027 497.455 66.52 497.455 67.544C497.455 68.5253 497.092 69.4 496.367 70.168C495.684 70.936 494.874 71.32 493.935 71.32C492.996 71.32 492.122 70.936 491.311 70.168L476.335 56.6V67.544C476.335 68.7813 475.951 69.72 475.183 70.36C474.415 71 473.455 71.32 472.303 71.32C471.151 71.32 470.191 71 469.423 70.36C468.698 69.72 468.335 68.7813 468.335 67.544V29.336C468.335 28.0987 468.698 27.16 469.423 26.52C470.191 25.88 471.151 25.56 472.303 25.56C473.455 25.56 474.415 25.88 475.183 26.52C475.951 27.16 476.335 28.0987 476.335 29.336V53.4L490.031 40.28C490.799 39.512 491.674 39.128 492.655 39.128C493.636 39.128 494.49 39.4907 495.215 40.216C495.94 40.9413 496.303 41.7947 496.303 42.776C496.303 43.7573 495.898 44.6533 495.087 45.464L485.039 54.808L496.175 64.792Z" fill="black"/>
    <g clip-path="url(#clip0)">
        <path d="M85.5175 22.4364H23.0166C16.9409 22.4364 11.9696 27.4077 11.9696 33.4834C11.9696 37.8072 14.4878 41.5703 18.129 43.3812C20.8132 44.7158 22.5396 47.4216 22.5396 50.4184V81.7021C22.5396 87.2222 27.0145 91.6971 32.5338 91.6971H76.0002C81.5204 91.6971 85.9945 87.2222 85.9945 81.7021V50.4184C85.9945 47.4216 87.7216 44.7158 90.4051 43.3812C94.047 41.5703 96.5645 37.8072 96.5645 33.4834C96.5645 27.4077 91.5931 22.4364 85.5175 22.4364V22.4364Z" fill="#F9BA75"/>
        <path d="M90.0222 73.3572C90.0222 80.6673 84.0961 86.5926 76.786 86.5926C69.476 86.5926 63.5506 80.6673 63.5506 73.3572C63.5506 66.0471 69.476 60.1217 76.786 60.1217C84.0961 60.1217 90.0222 66.0471 90.0222 73.3572V73.3572Z" fill="#FF737D"/>
        <path d="M87.4689 45.7573C87.4689 41.5785 82.1716 38.288 80.9476 34.5174C79.6788 30.61 81.9862 24.8432 79.619 21.59C77.2279 18.3047 71.014 18.7287 67.7286 16.3376C64.4762 13.9704 62.9719 7.91644 59.0645 6.64763C55.294 5.42367 50.5357 9.3976 46.3577 9.3976C42.1789 9.3976 37.4207 5.42367 33.6501 6.64837C29.7427 7.91719 28.2391 13.9704 24.986 16.3383C21.7007 18.7287 15.4867 18.3047 13.0964 21.59C11.681 23.5347 11.936 26.3767 12.0997 29.1842L67.7286 75.177C71.014 72.786 77.2279 73.2099 79.619 69.9246C81.9862 66.6722 79.6781 60.9046 80.9469 56.9972C82.1716 53.2259 87.4689 49.9361 87.4689 45.7573V45.7573Z" fill="#B2E59C"/>
        <path d="M87.4689 45.7573C87.4689 41.5785 82.1716 38.288 80.9476 34.5174C79.6788 30.61 81.9862 24.8424 79.619 21.59C77.2279 18.3047 71.014 18.7287 67.7286 16.3376C67.2187 15.9667 66.7514 15.5039 66.311 14.9835C46.991 20.3287 34.0516 17.4314 26.9001 14.3607C26.3161 15.1353 25.6925 15.8239 24.986 16.3376C21.7007 18.7287 15.4867 18.3047 13.0964 21.59C11.681 23.534 11.936 26.3767 12.0997 29.1835L67.7286 75.1763C71.014 72.786 77.2279 73.2099 79.619 69.9246C81.9862 66.6714 79.6781 60.9046 80.9469 56.9964C82.1716 53.2259 87.4689 49.9361 87.4689 45.7573V45.7573Z" fill="#9AD880"/>
        <path d="M74.9834 22.4364H12.4825C6.40688 22.4364 1.43555 27.4077 1.43555 33.4834C1.43555 37.8072 3.95299 41.5703 7.59494 43.3812C10.2784 44.7158 12.0055 47.4216 12.0055 50.4184V81.7021C12.0055 87.2222 16.4796 91.6971 21.9998 91.6971H65.4662C70.9855 91.6971 75.4604 87.2222 75.4604 81.7021V50.4184C75.4604 47.4216 77.1868 44.7158 79.871 43.3812C83.5122 41.5703 86.0304 37.8072 86.0304 33.4834C86.0304 27.4077 81.0591 22.4364 74.9834 22.4364Z" fill="#FFDAAA"/>
        <path d="M22.4446 35.6614C22.3736 24.7026 33.2254 22.7272 38.8166 22.4364H12.4825C6.40688 22.4364 1.43555 27.4077 1.43555 33.4834C1.43555 37.8072 3.95299 41.5703 7.59494 43.3812C10.2784 44.7158 12.0055 47.4216 12.0055 50.4184V81.7021C12.0055 87.2222 16.4796 91.6971 21.9998 91.6971H38.6558C33.757 50.843 22.5381 50.1933 22.4446 35.6614Z" fill="#FFCB8D"/>
        <path d="M59.1714 50.1709C58.3782 50.1709 57.7359 50.8131 57.7359 51.6064V53.9893C57.7359 54.7826 58.3782 55.4248 59.1714 55.4248C59.964 55.4248 60.607 54.7826 60.607 53.9893V51.6064C60.607 50.8131 59.964 50.1709 59.1714 50.1709V50.1709Z" fill="black"/>
        <path d="M28.2945 50.1709C27.5019 50.1709 26.8589 50.8131 26.8589 51.6064V53.9893C26.8589 54.7826 27.5019 55.4248 28.2945 55.4248C29.0878 55.4248 29.73 54.7826 29.73 53.9893V51.6064C29.73 50.8131 29.0878 50.1709 28.2945 50.1709V50.1709Z" fill="black"/>
        <path d="M47.2392 52.8558C45.1749 54.4573 42.2911 54.4573 40.226 52.8558C39.6002 52.3698 38.6977 52.4834 38.2125 53.11C37.7265 53.7366 37.8401 54.6383 38.4667 55.1243C40.0166 56.3265 41.8746 56.9284 43.7326 56.9284C45.5906 56.9284 47.4486 56.3265 48.9992 55.1243C49.6258 54.6383 49.7394 53.7366 49.2535 53.11C48.7675 52.4834 47.8658 52.3698 47.2392 52.8558V52.8558Z" fill="black"/>
        <path d="M88.8716 46.4003C89.46 45.681 90.2039 45.0844 91.0443 44.6672C95.2695 42.5662 98 38.1758 98 33.4834C98 26.6002 92.4006 21.0009 85.5175 21.0009H80.9536C80.8976 20.9141 79.0627 18.2711 73.4402 16.9963C71.5403 16.5656 69.7721 16.049 68.5735 15.1772C67.3997 14.3226 66.4247 12.7838 65.3929 11.1554C63.8385 8.703 62.2317 6.16687 59.5079 5.28237C56.8992 4.43599 54.1665 5.50817 51.5234 6.5452C49.7492 7.24204 47.9159 7.96205 46.3577 7.96205C44.7995 7.96205 42.9655 7.24204 41.192 6.5452C38.5489 5.50817 35.8161 4.43599 33.2067 5.28237C30.4837 6.16687 28.8769 8.703 27.3225 11.1554C26.2907 12.7838 25.3157 14.3218 24.1419 15.1772C22.9433 16.049 21.1511 16.4684 19.2752 16.9963C14.0571 18.4625 11.8066 20.9291 11.7453 21.024C5.20461 21.4076 0 26.8485 0 33.4834C0 38.1758 2.73053 42.5655 6.95567 44.6672C9.18451 45.7753 10.57 47.9794 10.57 50.4191V81.7028C10.57 88.005 15.6976 93.1326 21.9998 93.1326H76.0002C81.5966 93.1326 86.3564 89.0705 87.2715 83.6049C89.8593 80.9581 91.4578 77.3416 91.4578 73.3572C91.4578 67.3264 87.8069 63.6605 87.4308 63.265V50.2068C88.18 49.0292 88.737 47.7798 88.8716 46.4003V46.4003ZM81.9817 59.6358C82.0079 58.8372 81.7514 55.8144 84.5589 53.9175V60.9203C83.744 60.4089 82.8804 59.9775 81.9817 59.6358ZM79.2085 62.859C79.3566 65.3249 80.0781 69.0633 76.896 70.3478V50.4184C76.896 47.9794 78.2807 45.7753 80.5095 44.6664C81.9518 43.9494 83.2191 42.9655 84.2636 41.7946C85.2977 43.1658 86.0334 44.4586 86.0334 45.7573C86.0334 47.6392 84.5096 49.4763 82.8969 51.421C81.5652 53.027 80.188 54.6869 79.5824 56.5531C78.9483 58.5068 79.0807 60.7192 79.2085 62.859ZM95.1289 33.4834C95.1289 37.0954 93.0242 40.4757 89.7658 42.0959C89.2574 42.3486 88.7736 42.6477 88.3198 42.9864C87.7545 41.6264 86.8596 40.4106 85.9863 39.3295C86.9373 37.5523 87.4659 35.547 87.4659 33.4834C87.4659 29.6209 85.7021 26.1636 82.9387 23.872H85.5175C90.817 23.872 95.1289 28.1831 95.1289 33.4834ZM21.9998 90.2615C17.2804 90.2615 13.4411 86.4214 13.4411 81.7021V50.4184C13.4411 46.8826 11.4455 43.693 8.23421 42.0959C4.97581 40.4757 2.87109 37.0954 2.87109 33.4834C2.87109 28.1838 7.18297 23.872 12.4825 23.872H20.6913C21.4839 23.872 22.1269 23.2289 22.1269 22.4364C22.1269 21.6431 21.4839 21.0009 20.6913 21.0009H16.1492C17.2445 20.4879 18.5948 20.1373 19.993 19.7762C22.0566 19.2438 24.1905 18.692 25.8309 17.4987C27.4481 16.3219 28.6167 14.4766 29.7472 12.6926C31.0886 10.5767 32.3544 8.57814 34.0935 8.01364C35.7242 7.48429 37.87 8.32692 40.143 9.2189C42.1647 10.0122 44.256 10.8331 46.3577 10.8331C48.4587 10.8331 50.5499 10.0122 52.5724 9.2189C54.8446 8.32692 56.9905 7.48354 58.6212 8.01364C60.3603 8.57814 61.6268 10.5767 62.9674 12.6926C64.0979 14.4766 65.2673 16.3219 66.8838 17.4987C68.5242 18.692 70.6581 19.2438 72.7224 19.7762C74.1587 20.147 75.5457 20.5074 76.656 21.0442V21.116C76.1087 21.0427 26.8589 21.0009 26.8589 21.0009C26.0664 21.0009 25.4234 21.6431 25.4234 22.4364C25.4234 23.2289 26.0664 23.872 26.8589 23.872H74.9827C80.283 23.872 84.5948 28.1831 84.5948 33.4834C84.5948 37.0954 82.4894 40.4757 79.231 42.0959C76.0197 43.693 74.0249 46.8826 74.0249 50.4184V81.7021C74.0249 86.4214 70.1855 90.2615 65.4662 90.2615H21.9998ZM76.0002 90.2615H73.0305C73.8036 89.5774 74.4832 88.7901 75.0484 87.922C75.6242 87.9901 79.3977 88.2899 82.9843 86.6502C81.4239 88.8469 78.8579 90.2615 76.0002 90.2615ZM88.5867 73.3572C88.5867 79.8635 83.7858 85.0554 76.3644 85.1474C76.709 84.0595 76.896 82.9028 76.896 81.7021V73.4895C78.268 72.9677 79.7581 72.1721 80.7794 70.7695C82.3989 68.5436 82.2509 65.6374 82.0819 62.8134C85.993 64.791 88.5867 68.8749 88.5867 73.3572V73.3572Z" fill="black"/>
    </g>
    <defs>
        <clipPath id="clip0">
            <rect width="98" height="98" fill="white"/>
        </clipPath>
    </defs>
</svg>
